# xmcd
#
# Track frame offsets:
#	150
#	1432
#	20609
#	33384
#	61614
#	79190
#	88572
#	106508
#	117512
#	120330
#	126762
#	144389
#	151516
#	156584
#	162253
#	172098
#	181302
#	183341
#	193115
#
# Disc length: 2587 seconds
# Revision: 0
# Processed by: cddbd v1.5.2PL0 Copyright (c) Steve Scherf et al.
# Submitted via: dBpowerAMP V12.0
#
DISCID=eb0a1913
DTITLE=Hale Dwoskin - The Inner Circle Retreat 01 CD 10
DYEAR=2006
DGENRE=Speech
TTITLE0=Intro Music
TTITLE1=Wanting to Punish Myself
TTITLE2=Wanting to Control Anothers Experience
TTITLE3=Release on Wanting to Control Anothers Experience
TTITLE4=Parent-Child-Relationship
TTITLE5=Stop Investing I Am into the Story
TTITLE6=Being Confused - Protecting Myself
TTITLE7=Release on Wanting to Be Controlled
TTITLE8=The Blank Feeling
TTITLE9=Graduate Gain
TTITLE10=Mutuality and Harmlessness
TTITLE11=Wanting to Control What I Think
TTITLE12=Release on Creating Trouble
TTITLE13=How Beliefs Operate
TTITLE14=How to Handle a Lawsuit
TTITLE15=Release on Wanting Approval
TTITLE16=If You Are Stuck
TTITLE17=Sharing
TTITLE18=Concluding Music
EXTD=
EXTT0=
EXTT1=
EXTT2=
EXTT3=
EXTT4=
EXTT5=
EXTT6=
EXTT7=
EXTT8=
EXTT9=
EXTT10=
EXTT11=
EXTT12=
EXTT13=
EXTT14=
EXTT15=
EXTT16=
EXTT17=
EXTT18=
PLAYORDER=
